<?xml version="1.0" encoding="UTF-8"?>
<svg version="1.1" viewBox="0 0 120 120" xml:space="preserve" xmlns="http://www.w3.org/2000/svg"><rect x="-2.9169e-8" y="-2.826e-7" width="120" height="120" ry="15" style="fill:#353049"/><g transform="translate(40,-45)" style="fill:#353049"><g transform="translate(-7 43)"><g transform="matrix(.64 0 0 .64 -11 42.4)" style="stroke-width:1.5625"><g transform="matrix(1.9013 0 0 1.9262 59.375 -153.39)" style="fill:#fff;stroke-width:.81648"><path d="m-25 115h50s0-25-25-25-25 25-25 25z" style="fill:#fff;stroke-linecap:round;stroke-linejoin:round;stroke-width:1.633;stroke:#fff"/><circle cy="80" r="10" style="fill:#fff;stroke-linecap:round;stroke-linejoin:round;stroke-width:1.633;stroke:#fff"/><circle cy="65" r="5" style="fill:#fff;stroke-linecap:round;stroke-linejoin:round;stroke-width:1.633;stroke:#fff"/></g><g transform="matrix(1.344 0 0 1.3634 8.5996 -73.044)" style="stroke-width:1.1543"><path d="m-25 115h50s0-25-25-25-25 25-25 25z" style="fill:#353049;stroke-linecap:round;stroke-linejoin:round;stroke-width:2.3085;stroke:#fff"/><circle cy="80" r="10" style="fill:#353049;stroke-linecap:round;stroke-linejoin:round;stroke-width:2.3085;stroke:#fff"/><circle cy="65" r="5" style="fill:#353049;stroke-linecap:round;stroke-linejoin:round;stroke-width:2.3085;stroke:#fff"/></g><g transform="matrix(1.344 0 0 1.3634 110.15 -73.044)" style="stroke-width:1.1543"><path d="m-25 115h50s0-25-25-25-25 25-25 25z" style="fill:#353049;stroke-linecap:round;stroke-linejoin:round;stroke-width:2.3085;stroke:#fff"/><circle cy="80" r="10" style="fill:#353049;stroke-linecap:round;stroke-linejoin:round;stroke-width:2.3085;stroke:#fff"/><circle cy="65" r="5" style="fill:#353049;stroke-linecap:round;stroke-linejoin:round;stroke-width:2.3085;stroke:#fff"/></g></g></g></g></svg>
